<svg width="48" height="48" fill="none" xmlns="http://www.w3.org/2000/svg"><circle cx="24" cy="24" r="24" fill="#6D3B27"/><path d="M44.4 24c1.988 0 3.628 1.62 3.33 3.587A24 24 0 1120.413.269C22.38-.028 24 1.612 24 3.6s-1.63 3.561-3.573 3.984a16.8 16.8 0 1019.989 19.989C40.839 25.63 42.412 24 44.4 24z" fill="#EE8313"/><path d="M12.152 30V18.16h2.176v4.864h4.944V18.16h2.176V30h-2.176v-5.088h-4.944V30h-2.176zm11.594 0V18.16h2.176v5.136l4.512-5.12h2.72l-5.136 5.68L33.362 30h-2.816l-4.624-5.408V30h-2.176z" fill="#fff"/></svg>